<?xml version="1.0" encoding="iso-8859-1"?>
<!-- Generator: Adobe Illustrator 19.0.0, SVG Export Plug-In . SVG Version: 6.00 Build 0)  -->
<svg version="1.1" id="Capa_1" xmlns="http://www.w3.org/2000/svg" xmlns:xlink="http://www.w3.org/1999/xlink" x="0px" y="0px"
	 viewBox="0 0 480.042 480.042" style="enable-background:new 0 0 480.042 480.042;" xml:space="preserve">
<g>
	<path style="fill:#4D4D4D;" d="M138.348,416l-12.8,39.264c-2.218,6.666,1.388,13.867,8.053,16.085
		c1.293,0.43,2.648,0.65,4.011,0.651c4.004,0,7.774-1.885,10.176-5.088l25.52-34.248"/>
	<path style="fill:#4D4D4D;" d="M341.348,416l13.064,39.264c2.218,6.666-1.387,13.867-8.053,16.086
		c-1.273,0.424-2.605,0.643-3.947,0.65c-4.004,0-7.774-1.885-10.176-5.088L306.716,431"/>
</g>
<circle style="fill:#55D08F;" cx="240.012" cy="280" r="176"/>
<circle style="fill:#F2F2F2;" cx="240.012" cy="280" r="136"/>
<g>
	<path style="fill:#CDA349;" d="M419.476,180.264c28.833-33.431,25.105-83.907-8.326-112.74s-83.907-25.105-112.74,8.326
		c-0.822,0.953-1.622,1.926-2.398,2.917C348.227,96.303,392.171,132.427,419.476,180.264z"/>
	<path style="fill:#CDA349;" d="M60.548,180.264c-28.833-33.431-25.105-83.907,8.327-112.74s83.907-25.105,112.739,8.327
		c0.822,0.953,1.622,1.926,2.398,2.917C131.796,96.303,87.853,132.427,60.548,180.264z"/>
</g>
<path style="fill:#C3922E;" d="M200.012,8h80v32h-80V8z"/>
<g>
	<circle style="fill:#ED1C24;" cx="240.012" cy="280" r="21.336"/>
	<path style="fill:#ED1C24;" d="M255.324,287.312l-44,44c-6.248,6.246-16.376,6.246-22.624,0c-6.246-6.248-6.246-16.376,0-22.624
		l33.536-33.544l1.776-3.144v-80c0-8.837,7.163-16,16-16c8.837,0,16,7.163,16,16v95.312"/>
</g>
<path d="M96.012,280c0,79.529,64.471,144,144,144s144-64.471,144-144s-64.471-144-144-144
	C160.521,136.093,96.104,200.509,96.012,280z M368.012,280c0,70.692-57.308,128-128,128s-128-57.308-128-128s57.308-128,128-128
	C310.67,152.084,367.928,209.342,368.012,280z"/>
<path d="M412.524,184.224c1.287,2.257,3.59,3.749,6.176,4c0.264,0,0.52,0.04,0.8,0.04c2.325,0.001,4.535-1.009,6.056-2.768
	c31.76-36.747,27.718-92.283-9.029-124.043C395.176,43,366.268,35.913,338.804,42.4c-19.496,4.541-36.834,15.657-49.096,31.48
	c-2.721,3.481-2.105,8.509,1.376,11.23c0.716,0.56,1.522,0.993,2.384,1.282c20.928,7.089,40.648,17.341,58.472,30.4l-10.088,10.056
	c-27.879-18.626-60.342-29.228-93.84-30.648V48h32c4.418,0,8-3.582,8-8V8c0-4.418-3.582-8-8-8h-80c-4.418,0-8,3.582-8,8v32
	c0,4.418,3.582,8,8,8h32v48.2c-33.498,1.42-65.961,12.022-93.84,30.648L128.084,116.8c17.824-13.059,37.544-23.311,58.472-30.4
	c4.189-1.404,6.447-5.939,5.042-10.128c-0.289-0.862-0.723-1.668-1.282-2.384C178.053,58.06,160.712,46.94,141.212,42.4
	C93.945,31.245,46.584,60.52,35.429,107.787c-6.481,27.461,0.61,56.364,19.063,77.709c1.521,1.759,3.731,2.769,6.056,2.768
	c0.256,0,0.512,0,0.8-0.04c2.586-0.251,4.889-1.743,6.176-4c12.474-21.832,28.673-41.313,47.864-57.56l9.76,9.76
	C45.844,199.691,32.844,315.266,96.11,394.57c9.109,11.418,19.547,21.709,31.094,30.654l-9.176,27.544
	c-3.623,10.85,2.235,22.583,13.085,26.206c8.465,2.827,17.79-0.086,23.139-7.23l16.088-21.456
	c44.657,18.326,94.735,18.326,139.392,0l16.088,21.456c6.857,9.156,19.838,11.02,28.994,4.163c7.144-5.35,10.057-14.674,7.23-23.139
	l-9.232-27.576c80.196-62.131,94.841-177.51,32.71-257.706c-8.945-11.546-19.236-21.985-30.654-31.094l9.76-9.76
	C383.833,142.886,400.043,162.378,412.524,184.224z M208.012,16h64v16h-64V16z M59.892,165.888
	c-20.961-33.744-10.598-78.092,23.146-99.053c16.26-10.1,35.874-13.303,54.502-8.899c12.19,2.835,23.416,8.837,32.544,17.4
	C124.748,93.187,86.191,124.872,59.892,165.888L59.892,165.888z M141.428,462.12c-0.905,1.193-2.319,1.889-3.816,1.88
	c-2.602,0.001-4.712-2.109-4.713-4.711c0-0.506,0.081-1.009,0.241-1.489l7.648-22.944c4.747,3.051,9.637,5.885,14.672,8.504
	L141.428,462.12z M346.844,457.8c0.822,2.469-0.513,5.137-2.983,5.959c-0.468,0.156-0.957,0.237-1.449,0.241
	c-1.483-0.003-2.88-0.698-3.776-1.88l-14.112-18.76c5.029-2.613,9.92-5.448,14.672-8.504L346.844,457.8z M408.012,280
	c0,92.784-75.216,168-168,168s-168-75.216-168-168s75.216-168,168-168C332.752,112.106,407.906,187.26,408.012,280z M342.484,57.936
	c38.652-9.149,77.403,14.769,86.552,53.421c4.411,18.637,1.207,38.265-8.904,54.531c-26.301-41.015-64.857-72.699-110.192-90.552
	C319.068,66.773,330.294,60.771,342.484,57.936z"/>
<path d="M216.012,192v78.064l-32.968,32.968c-9.534,9.208-9.798,24.402-0.59,33.936c9.208,9.534,24.402,9.798,33.936,0.59
	c0.2-0.193,0.396-0.39,0.59-0.59l33.536-33.536c0.818-0.833,1.439-1.839,1.816-2.944c7.222-4.303,11.656-12.081,11.68-20.488
	c-0.007-1.726-0.202-3.445-0.584-5.128c0.374-0.912,0.572-1.886,0.584-2.872v-80c0-13.255-10.745-24-24-24
	C226.757,168,216.012,178.745,216.012,192L216.012,192z M240.012,288c-4.418,0-8-3.582-8-8s3.582-8,8-8s8,3.582,8,8
	S244.43,288,240.012,288z M205.668,325.656c-3.161,3.034-8.151,3.034-11.312,0c-3.123-3.124-3.123-8.188,0-11.312l24.056-24.064
	c2.367,4.958,6.362,8.953,11.32,11.32L205.668,325.656z M248.012,192v65.472c-5.153-1.963-10.847-1.963-16,0V192
	c0-4.418,3.582-8,8-8S248.012,187.582,248.012,192L248.012,192z"/>
<g>
</g>
<g>
</g>
<g>
</g>
<g>
</g>
<g>
</g>
<g>
</g>
<g>
</g>
<g>
</g>
<g>
</g>
<g>
</g>
<g>
</g>
<g>
</g>
<g>
</g>
<g>
</g>
<g>
</g>
</svg>
