<svg xmlns="http://www.w3.org/2000/svg" viewBox="0 0 64 64"><g data-name="Layer 10"><rect width="15.94" height="30.81" x="43.08" y="30.19" fill="#56aaff" rx="1" ry="1"/><rect width="15.82" height="30.81" x="4.98" y="30.19" fill="#56aaff" rx="1" ry="1"/><rect width="15.59" height="14.94" x="24.2" y="14.39" fill="#56aaff" rx="1" ry="1"/><rect width="26.28" height="33.67" x="18.8" y="27.33" fill="#0478ed" rx="1" ry="1"/><path fill="#56aaff" d="M39.19,6.77l2.31-2A1,1,0,0,0,40.83,3H32a1,1,0,0,0-1,1V15.39a1,1,0,0,0,2,0V10.55h7.83A1,1,0,0,0,41.5,8.8Z"/><rect width="6.25" height="6.25" x="28.88" y="33.88" fill="#d9dce1" rx="1" ry="1"/><rect width="6.25" height="6.25" x="47.93" y="33.88" fill="#d9dce1" rx="1" ry="1"/><rect width="6.25" height="6.25" x="47.93" y="44.13" fill="#d9dce1" rx="1" ry="1"/><rect width="6.25" height="6.25" x="9.77" y="33.88" fill="#d9dce1" rx="1" ry="1"/><rect width="6.25" height="6.25" x="9.77" y="44.13" fill="#d9dce1" rx="1" ry="1"/><rect width="6.25" height="6.25" x="28.88" y="18.74" fill="#d9dce1" rx="1" ry="1"/><path fill="#d9dce1" d="M23.73,48.25h1.6V61h2V48.25h9.33V61h2V48.25h1.61a1,1,0,0,0,0-2H23.73a1,1,0,0,0,0,2Z"/><path d="M58,30.19H45.08V28.33a1,1,0,0,0-1-1H39.8V15.39a1,1,0,0,0-1-1H33V10.55h7.83A1,1,0,0,0,41.5,8.8l-2.31-2,2.31-2A1,1,0,0,0,40.83,3H32a1,1,0,0,0-1,1V14.39H25.2a1,1,0,0,0-1,1V27.33H19.8a1,1,0,0,0-1,1v1.86H6a1,1,0,0,0-1,1V60a1,1,0,0,0,1,1H58a1,1,0,0,0,1-1V31.19A1,1,0,0,0,58,30.19ZM33,5h5.17L37,6a1,1,0,0,0,0,1.5l1.18,1H33ZM26.2,16.39H37.8V27.33H26.2ZM7,32.19H18.8V59H7Zm13.82-1V29.33H43.08V59H38.66V48.25h1.61a1,1,0,0,0,0-2H23.73a1,1,0,0,0,0,2h1.6V59H20.8ZM27.33,59V48.25h9.33V59ZM57,59H45.08V32.19H57Z"/><path d="M29.88 40.13h4.25a1 1 0 0 0 1-1V34.88a1 1 0 0 0-1-1H29.88a1 1 0 0 0-1 1v4.25A1 1 0 0 0 29.88 40.13zm1-4.25h2.25v2.25H30.88zM48.93 40.13h4.25a1 1 0 0 0 1-1V34.88a1 1 0 0 0-1-1H48.93a1 1 0 0 0-1 1v4.25A1 1 0 0 0 48.93 40.13zm1-4.25h2.25v2.25H49.93zM48.93 50.38h4.25a1 1 0 0 0 1-1V45.13a1 1 0 0 0-1-1H48.93a1 1 0 0 0-1 1v4.25A1 1 0 0 0 48.93 50.38zm1-4.25h2.25v2.25H49.93zM15 33.88H10.77a1 1 0 0 0-1 1v4.25a1 1 0 0 0 1 1H15a1 1 0 0 0 1-1V34.88A1 1 0 0 0 15 33.88zm-1 4.25H11.77V35.88H14zM15 44.13H10.77a1 1 0 0 0-1 1v4.25a1 1 0 0 0 1 1H15a1 1 0 0 0 1-1V45.13A1 1 0 0 0 15 44.13zm-1 4.25H11.77V46.13H14zM34.13 18.74H29.88a1 1 0 0 0-1 1V24a1 1 0 0 0 1 1h4.25a1 1 0 0 0 1-1V19.74A1 1 0 0 0 34.13 18.74zm-1 4.25H30.88V20.74h2.25z"/></g></svg>