<?xml version="1.0" encoding="UTF-8"?><svg xmlns="http://www.w3.org/2000/svg" xmlns:xlink="http://www.w3.org/1999/xlink" version="1.1" id="Layer_1" x="0px" y="0px" viewBox="0 0 16 16" xml:space="preserve"><style type="text/css">.st0{fill:#FFC107;} .st1{fill:#455A64;} .st2{fill:#F44336;} .st3{fill:#D32F2F;} .st4{fill:#ECEFF1;} .st5{fill:#90A4AE;} .st6{fill:#CFD8DC;} .st7{fill:#B0BEC5;} .st8{fill:#1E88E5;} .st9{fill:#2196F3;} .st10{fill:#64B5F6;} .st11{fill:#FAFAFA;} .st12{fill:#1976D2;} .st13{fill:#FFD54F;} .st14{fill:#607D8B;} .st15{fill:#FFA000;} .st16{fill:#4CAF50;} .st17{fill:none;stroke:#000000;stroke-linecap:round;stroke-linejoin:round;stroke-miterlimit:10;}</style><path class="st8" d="M15 16H1a1 1 0 0 1-1-1V6h16v9a1 1 0 0 1-1 1z" fill="#1E88E5"/><path class="st10" d="M0 6l7.704 4.903a.497.497 0 0 0 .592 0L16 6 8.3.1a.501.501 0 0 0-.6 0L0 6z" fill="#64B5F6"/><path class="st9" d="M15 16H1a.99.99 0 0 1-1-1 .5.5 0 0 1 .204-.403l7.5-5a.497.497 0 0 1 .592 0l7.5 5A.5.5 0 0 1 16 15a.99.99 0 0 1-1 1z" fill="#2196F3"/><metadata><rdf:RDF xmlns:rdf="http://www.w3.org/1999/02/22-rdf-syntax-ns#" xmlns:rdfs="http://www.w3.org/2000/01/rdf-schema#" xmlns:dc="http://purl.org/dc/elements/1.1/"><rdf:Description about="https://iconscout.com/legal#licenses" dc:title="email,open,color,e" dc:description="email,open,color,e" dc:publisher="Iconscout" dc:date="2018-02-17" dc:format="image/svg+xml" dc:language="en"><dc:creator><rdf:Bag><rdf:li>Pixel Icons</rdf:li></rdf:Bag></dc:creator></rdf:Description></rdf:RDF></metadata></svg>