<svg xmlns="http://www.w3.org/2000/svg" viewBox="0 0 64 64"><polygon fill="#f8fffd" fill-rule="evenodd" points="2 37.64 62 37.64 56 24.11 8 24.11 2 37.64"/><polygon fill="#def1fb" fill-rule="evenodd" points="50.48 27.73 50.48 37.64 14.48 37.64 14.48 27.73 18.36 24.11 46.61 24.11 50.48 27.73"/><rect width="15.48" height="23.89" x="2" y="37.64" fill="#0096c7"/><rect width="14.52" height="23.89" x="47.48" y="37.64" fill="#0096c7"/><polygon fill="#ffc55f" fill-rule="evenodd" points="32.48 15.54 47.48 29.53 47.48 61.54 17.48 61.54 17.48 29.53 32.48 15.54"/><polygon fill="#f8ad49" fill-rule="evenodd" points="47.48 34.59 32.48 20.61 17.48 34.59 17.48 29.53 32.48 15.54 47.48 29.53 47.48 34.59"/><rect width="3" height="23.89" x="14.48" y="37.64" fill="#007399"/><rect width="3" height="23.89" x="47.48" y="37.64" fill="#007399"/><path fill="#f8ad49" fill-rule="evenodd" d="M36,55.57a3.5,3.5,0,1,0-7,0v5.51h7Z"/><rect width="7.68" height="7" x="32.48" y="2.03" fill="#c63d4f"/><polygon fill="#ac3345" fill-rule="evenodd" points="48.29 4.04 40.18 4.04 40.18 10.04 48.29 10.04 46.89 7.04 48.29 4.04"/><path fill="#007399" fill-rule="evenodd" d="M47.48,42.68H62v-5H47.48ZM2,42.68H17.48v-5H2Z"/><path fill="#0a1120" d="M62.93,37.27a0,0,0,0,1,0,0h0l-6-13.52a1,1,0,0,0-.92-.6H42.07l-8.59-8V10h5.7a1,1,0,0,0,1,1h8.11a1,1,0,0,0,.84-.46,1,1,0,0,0,.07-1L48,7l1.2-2.58a1,1,0,0,0-.07-1A1,1,0,0,0,48.29,3H41.16V2a1,1,0,0,0-1-1H32.48a1,1,0,0,0-1,1V15.11l-8.58,8H8a1,1,0,0,0-.91.6l-6,13.52h0v0A.78.78,0,0,0,1,37.6s0,0,0,0V61.53a1,1,0,0,0,1,1H62a1,1,0,0,0,1-1V37.64s0,0,0,0A1,1,0,0,0,62.93,37.27ZM48.48,38.64H61v10H48.48Zm6.87-13.53,5.11,11.53h-12V29.53a1,1,0,0,0-.31-.73l-4-3.69ZM41.18,5h5.54L46,6.62a1,1,0,0,0,0,.84L46.72,9H41.18Zm-2,3H33.48V3h5.68ZM8.65,25.11h12.1L16.8,28.8a1,1,0,0,0-.32.73v7.11H3.54ZM3,38.64H16.48v10H3Zm0,12H16.48v9.94H3Zm15.48-13V30L32.37,17l.11,0,.11,0L46.48,30V60.54H37v-5a4.5,4.5,0,1,0-9,0v5h-9.5ZM30,60.08V55.57a2.46,2.46,0,0,1,.74-1.77,2.55,2.55,0,0,1,3.53,0A2.49,2.49,0,0,1,35,55.57v4.51Zm31,.45H48.48V50.59H61Z"/><path fill="#0a1120" d="M7.24 41a1 1 0 0 0-1 1v3a1 1 0 0 0 2 0V42A1 1 0 0 0 7.24 41zM12.24 41a1 1 0 0 0-1 1v3a1 1 0 0 0 2 0V42A1 1 0 0 0 12.24 41zM22.31 43a1 1 0 0 0-1 1v3a1 1 0 0 0 2 0V44A1 1 0 0 0 22.31 43zM32.31 43a1 1 0 0 0-1 1v3a1 1 0 1 0 2 0V44A1 1 0 0 0 32.31 43zM42.31 48a1 1 0 0 0 1-1V44a1 1 0 0 0-2 0v3A1 1 0 0 0 42.31 48zM28.31 47V44a1 1 0 0 0-2 0v3a1 1 0 0 0 2 0zM37.31 43a1 1 0 0 0-1 1v3a1 1 0 0 0 2 0V44A1 1 0 0 0 37.31 43zM52.37 41a1 1 0 0 0-1 1v3a1 1 0 0 0 2 0V42A1 1 0 0 0 52.37 41zM56.12 41a1 1 0 0 0-1 1v3a1 1 0 0 0 2 0V42A1 1 0 0 0 56.12 41zM30.18 38.34A15.79 15.79 0 0 0 32.48 37a16.41 16.41 0 0 0 2.31 1.37 6.43 6.43 0 0 0 2.65.7 2.5 2.5 0 0 0 1.85-.7c.65-.65 1.18-2 0-4.5a15.5 15.5 0 0 0-1.37-2.31 14.55 14.55 0 0 0 1.37-2.31c1.18-2.54.65-3.85 0-4.49s-2-1.18-4.5 0a15.5 15.5 0 0 0-2.31 1.37 14.94 14.94 0 0 0-2.3-1.37c-2.55-1.18-3.85-.65-4.5 0s-1.18 1.95 0 4.49a14.55 14.55 0 0 0 1.37 2.31 15.5 15.5 0 0 0-1.37 2.31c-1.18 2.55-.65 3.85 0 4.5a2.48 2.48 0 0 0 1.84.7A6.43 6.43 0 0 0 30.18 38.34zm7.29-3.66c.61 1.32.58 2.08.41 2.25s-.93.2-2.25-.41a13.38 13.38 0 0 1-1.48-.84c.43-.38.86-.78 1.28-1.2s.82-.85 1.2-1.28A11.26 11.26 0 0 1 37.47 34.68zM31 33.07c-.52-.53-1-1-1.39-1.53C30 31 30.45 30.5 31 30s1-1 1.53-1.38A19.55 19.55 0 0 1 34 30c.5.5.95 1 1.38 1.53-.43.52-.88 1-1.38 1.54s-1 1-1.54 1.38C32 34 31.45 33.57 31 33.07zm4.68-6.53A4.7 4.7 0 0 1 37.45 26a.68.68 0 0 1 .43.11c.17.17.2.93-.41 2.24a12 12 0 0 1-.84 1.49q-.57-.64-1.2-1.29c-.42-.42-.85-.81-1.28-1.19A12.07 12.07 0 0 1 35.63 26.54zm-8.54-.4a.65.65 0 0 1 .43-.11 4.7 4.7 0 0 1 1.82.51 12.07 12.07 0 0 1 1.48.85c-.43.38-.86.77-1.28 1.19s-.83.86-1.21 1.3C27 27.89 26.78 26.45 27.09 26.14zm.41 8.54a11.26 11.26 0 0 1 .84-1.48c.38.43.78.86 1.2 1.28s.85.82 1.28 1.2a13.38 13.38 0 0 1-1.48.84c-1.32.61-2.08.57-2.25.41S26.88 36 27.5 34.68z"/></svg>